<?xml version="1.0" encoding="utf-8"?>
<!-- Generator: Adobe Illustrator 21.1.0, SVG Export Plug-In . SVG Version: 6.00 Build 0)  -->
<svg version="1.1" id="Layer_1" xmlns="http://www.w3.org/2000/svg" xmlns:xlink="http://www.w3.org/1999/xlink" x="0px" y="0px"
	 viewBox="0 0 1115.6 199.2" style="enable-background:new 0 0 1115.6 199.2;" xml:space="preserve">
<style type="text/css">
	.st0{fill:#FFFFFF;}
	.st1{fill:#B8F286;}
	.st2{fill:#84F130;}
	.st3{fill:#F37526;}
	.st4{fill:#F27029;}
	.st5{fill:#F69220;}
	.st6{fill:#F79920;}
	.st7{fill:#69C41A;}
	.st8{fill:#D93627;}
	.st9{fill:#4DA004;}
	.st10{fill:#0098C1;}
	.st11{fill:#FBB216;}
	.st12{fill:#65C412;}
	.st13{fill:#FFC114;}
	.st14{fill:#82DCF4;}
	.st15{fill:#0074E8;}
	.st16{fill:#00ADE6;}
	.st17{fill:#2393C4;}
	.st18{fill:#EE4456;}
	.st19{fill:none;stroke:#D51E43;stroke-width:0;stroke-linecap:round;stroke-linejoin:round;}
	.st20{fill:none;stroke:#C42042;stroke-width:0;stroke-linecap:round;stroke-linejoin:round;}
	.st21{fill:#009BB1;}
	.st22{fill:#10ABB6;}
</style>
<g>
	<path class="st0" d="M402.2,158.6l-12.7-54.9l-13.1,54.9h-31.3l-29.7-91.8h32.5l13.9,60.3l13.6-60.1l29.6-0.1l13.9,60.3l13.6-60.3
		h31l-30,91.8H402.2z"/>
	<path class="st0" d="M492.2,145.7l-4.7,13h-31.2L495,66.8h31.2l37.3,91.8h-32.4l-4.6-13H492.2z M509.7,97.1l-9.7,26.9h19.1
		L509.7,97.1z"/>
	<path class="st0" d="M613.2,134.8h-11.4v23.8h-30.4V66.8h44.4c24.9,0,39.2,11.9,39.2,32.9c0,13.4-5.1,23.3-14.5,29.1l18.1,29.9
		h-34.3L613.2,134.8z M615.8,111.7c6.5,0,10.3-4.1,10.3-11.1c0-6.8-3.8-10.7-10.3-10.7h-14v21.9H615.8z"/>
	<path class="st0" d="M740.8,134.8h-11.4v23.8H699V66.8h44.4c24.9,0,39.2,11.9,39.2,32.9c0,13.4-5.1,23.3-14.5,29.1l18.1,29.9h-34.3
		L740.8,134.8z M743.4,111.7c6.5,0,10.3-4.1,10.3-11.1c0-6.8-3.8-10.7-10.3-10.7h-14v21.9H743.4z"/>
	<path class="st0" d="M892.8,112.6c0,27.2-21.2,47.3-50.4,47.3c-29.2,0-50.4-19.9-50.4-47.3c0-27.2,21.2-46.8,50.4-46.8
		C871.6,65.9,892.8,85.5,892.8,112.6z M823.1,112.8c0,12.6,9.2,21.9,19.6,21.9c10.5,0,18.9-9.3,18.9-21.9c0-12.6-8.4-21.6-18.9-21.6
		C832.2,91.2,823.1,100.2,823.1,112.8z"/>
	<path class="st0" d="M1000.2,112.6c0,27.2-21.2,47.3-50.4,47.3s-50.4-19.9-50.4-47.3c0-27.2,21.2-46.8,50.4-46.8
		S1000.2,85.5,1000.2,112.6z M930.6,112.8c0,12.6,9.2,21.9,19.6,21.9s18.9-9.3,18.9-21.9c0-12.6-8.4-21.6-18.9-21.6
		C939.6,91.2,930.6,100.2,930.6,112.8z"/>
	<path class="st0" d="M1089.2,158.6v-50.3l-15.7,41.4h-19.9l-15.7-41.4v50.3h-26.5V66.8h32.1l20,47.9l20-47.9h32.1v91.8H1089.2z"/>
</g>
<g>
	<path class="st0" d="M272.4,142.1H296v10.6h-23.6v9.1H264V133h8.3V142.1z"/>
	<path class="st0" d="M296,109.2h-11.5v9.9H296v10.6H264V119h12.4v-9.9H264V98.6H296V109.2z"/>
	<path class="st0" d="M272.1,82.6h3.9V67.6h8v14.9h4V65.7h8v27.4H264v-27h8V82.6z"/>
</g>
<g>
	<polygon class="st1" points="191.2,113.2 167.6,129.4 181.8,183.4 183.2,182 194.3,112.7 	"/>
	<path class="st2" d="M148.5,142.5c2.7,6.4,4.5,13.8,4.7,22.6l27.3,19.6l1.3-1.3l-14.2-54L148.5,142.5z"/>
	<path class="st3" d="M73,155.9c0-0.2,0-0.3,0.1-0.5l-0.8,0.5L73,155.9z"/>
	<path class="st4" d="M153.2,166.8c1.2,0.5,2,1.6,2,3.3c-0.2,4.6-0.6,13.5,4.6,19.3l18.6-2.7l2.1-2.1l-27.3-19.6
		C153.2,165.6,153.2,166.2,153.2,166.8z"/>
	<path class="st5" d="M72.7,158.4c0.1-0.9,0.2-1.7,0.3-2.6l-0.8,0L72.7,158.4z"/>
	<path class="st6" d="M53.4,180.5l9.8,9.8c6-5.7,5.6-15.3,5.4-20.1c0-2,1.1-3.1,2.6-3.5c0.7-2.9,1.2-5.6,1.6-8.1l-0.4-2.5
		L53.4,180.5z"/>
	<polygon class="st7" points="195.3,112.6 211.2,154 211.9,153.3 207.7,110.7 	"/>
	<path class="st8" d="M73.1,155.4c0.1-0.6,0.1-1.3,0.2-1.9l-1,2.4L73.1,155.4z"/>
	<polygon class="st9" points="194.3,112.7 183.2,182 211.2,154 195.3,112.6 	"/>
	<polygon class="st10" points="19.5,135.7 15.5,142.6 30.9,158 72.2,155.9 	"/>
	<path class="st5" d="M168.1,194.2c-0.4,1.6-1.8,2.6-3.2,3.2c0.6,0.4,1,1,1.1,1.7l0.4-0.3l12-12l-18.6,2.7
		C161.7,191.6,164.4,193.3,168.1,194.2z"/>
	<polygon class="st11" points="30.9,158 53.4,180.5 72.2,155.9 	"/>
	<path class="st12" d="M162.5,109.8l5.1,19.6l23.6-16.1l-13.1,2c-3.2,2.1-5.8,3.2-5.8,2.1c-0.2-0.4-0.4-0.7-0.5-1.1l-1.2,0.2
		L162.5,109.8z"/>
	<path class="st13" d="M166,199.2l0.4-0.4L166,199.2C166,199.1,166,199.1,166,199.2z"/>
	<path class="st2" d="M212.2,110l-4.5,0.7l4.2,42.6l20.5-20.5c1-1,1.8-2,2.5-3.1l-17.2-14.9L212.2,110z"/>
	<path class="st14" d="M3,129.4c0.8,1.2,1.7,2.4,2.7,3.4l1.5,1.5l3.1-2.1L3,129.4z"/>
	<polygon class="st14" points="10.2,132.2 7.2,134.3 15.5,142.6 19.5,135.7 	"/>
	<polygon class="st15" points="19.5,135.7 29.3,118.9 29.2,118.9 10.2,132.2 	"/>
	<polygon class="st16" points="72.2,155.9 29.5,118.9 29.3,118.9 19.5,135.7 	"/>
	<path class="st14" d="M29.5,118.9l42.7,37l1-2.4c0.7-8.3,0-15.2-1.3-21.4l-41.8-13.1L29.5,118.9z"/>
	<path class="st16" d="M29.2,118.9l-4.4-0.8l-24.1-4.5c-1.5,5.3-0.8,11,2.2,15.8l7.3,2.8L29.2,118.9z"/>
	<path class="st1" d="M142.8,105.2c-8.6,1-19.6-3.4-24.9-10.3l-0.4-0.1l4.7,15.4c2.5,2.4,5.8,5.2,9.1,8.4l22.2-14
		C149.2,104.4,145.3,105,142.8,105.2z"/>
	<path class="st12" d="M136.5,124.1c4.5,5,8.8,11,12,18.4l19.2-13.1L136.5,124.1z"/>
	<path class="st7" d="M162.5,109.8l-5.8-4.7c-1-0.2-2.1-0.3-3.1-0.4l-22.2,14c1.7,1.6,3.4,3.4,5.2,5.3l31.1,5.3L162.5,109.8z"/>
	<path class="st17" d="M30.2,119.1L72,132.2c-0.6-2.9-1.3-5.7-2-8.4l-3.7,2L30.2,119.1z"/>
	<path class="st2" d="M115.2,94.6c0.1,4.2,0.8,8.1,2.5,10.5l0,0c0.9,1.6,2.5,3.3,4.5,5.2l-4.7-15.4L115.2,94.6z"/>
	<polygon class="st9" points="67.3,43.6 44.7,66.3 72.4,47.3 	"/>
	<path class="st3" d="M86.7,51.8c2.3-2.1,4.7-4.1,7.3-5.9l-21.6,1.4L86.7,51.8z"/>
	<path class="st4" d="M130.3,14.8l-2.1-12.5c-7.4-3.9-16.7-2.8-23,3.4L67.3,43.6l5.1,3.6L130.3,14.8z"/>
	<path class="st4" d="M137.7,10.6l-4.9-4.9c-1.4-1.4-3-2.5-4.6-3.4l2.1,12.5L137.7,10.6z"/>
	<path class="st5" d="M72.4,47.3L94,45.9c10.4-7.1,23.6-11.5,39.5-11.4l-3.2-19.7L72.4,47.3z"/>
	<path class="st6" d="M137.7,10.6l-7.5,4.2l3.2,19.7c2.5,0,5.1,0.2,7.8,0.4l9-11.7L137.7,10.6z"/>
	<path class="st10" d="M188.8,61.6l-20.1-20.1l-13.2,0.7c-4.5,4.4-11.4,3.4-11.4,3.4c4,1.6,7.2,3.2,9.9,4.9l33.7,12.9L188.8,61.6z"
		/>
	<path class="st11" d="M150.3,23.2l-9,11.7c5.4,0.5,11,1.5,16.9,3.1c-0.7,1.8-1.6,3.1-2.7,4.2l13.2-0.7L150.3,23.2z"/>
	<polygon class="st9" points="47.1,98.5 39.9,71.1 20.4,90.6 	"/>
	<path class="st9" d="M48.2,102.7l-1.1-4.3l-26.7-7.9L5.7,105.2c-0.1,0.1-0.1,0.1-0.2,0.2L48.2,102.7z"/>
	<path class="st7" d="M48.2,102.7l-42.6,2.7c-2.3,2.4-3.9,5.2-4.8,8.2l24.1,4.5L48.2,102.7z"/>
	<path class="st6" d="M77.2,63c2.7-4.1,5.9-7.9,9.5-11.3l-14.3-4.5L77.2,63z"/>
	<polygon class="st17" points="192.4,65.2 188.8,61.6 187.7,63.5 	"/>
	<path class="st15" d="M194.3,112.7l1-0.1l12.4-1.9l4.5-0.7l-34.3-29.7l-1,5l14.4,13.1c3,3.7-6.5,12.4-13,16.8l13.1-2L194.3,112.7z"
		/>
	<path class="st18" d="M171.8,116.2c-0.3-0.5-0.6-1-0.9-1.5l-0.3,1.7L171.8,116.2z"/>
	<path class="st14" d="M170.6,116.3l0.3-1.7c-3.7-6-9.1-8.6-14.3-9.5l5.8,4.7L170.6,116.3z"/>
	<polygon class="st17" points="177.8,80.3 174,82.8 176.8,85.4 	"/>
	<polygon class="st17" points="177.8,80.3 195.3,68.2 192.4,65.2 187.7,63.5 	"/>
	<path class="st16" d="M177.8,80.3l9.9-16.9L154,50.5c9.2,5.8,11.2,11.8,12.2,15c0.6,1.8,0.6,3.6,0.4,5.1L177.8,80.3z"/>
	<polygon class="st16" points="177.8,80.3 212.2,110 217.7,114.9 230.6,103.5 221,93.9 	"/>
	<path class="st10" d="M238.1,119c0-5-1.9-10-5.7-13.8l-1.7-1.7l-12.9,11.3l17.2,14.9C237,126.5,238.1,122.8,238.1,119L238.1,119z"
		/>
	<path class="st17" d="M177.8,80.3l-11.2-9.7c-0.3,2.5-1.2,4.3-1.2,4.3l2.5,2.3L177.8,80.3z"/>
	<polygon class="st14" points="177.8,80.3 221,93.9 195.3,68.2 	"/>
	<line class="st19" x1="212.2" y1="110" x2="217.7" y2="114.9"/>
	<line class="st20" x1="217.7" y1="114.9" x2="234.9" y2="129.7"/>
	<path class="st9" d="M47.1,98.5l1.1,4.3l17.8,3.8c-0.3-2.4-0.5-4.9-0.4-7.5h0c0.2-4.4,0.8-8.9,1.8-13.3L47.1,98.5z"/>
	<path class="st21" d="M115.4,90.2c-0.1,0.8-0.1,1.5-0.2,2.3l0.5-1.3C115.6,90.8,115.5,90.5,115.4,90.2z"/>
	<path class="st2" d="M48.2,102.7l-23.3,15.3l42.6-3.8c-0.6-2.6-1.1-5.1-1.5-7.7L48.2,102.7z"/>
	<path class="st1" d="M24.9,118.1l4.4,0.8l0.1,0l0.2,0l0.7,0.1l36.1,6.7l3.7-2c-0.9-3.3-1.8-6.4-2.5-9.5L24.9,118.1z"/>
	<path class="st7" d="M44.7,66.3L40.9,70l29.8,5.1c1.7-4.2,3.9-8.3,6.4-12.1l-4.8-15.7L44.7,66.3z"/>
	<path class="st2" d="M39.9,71.1l7.2,27.4l20.3-12.8c0.8-3.6,2-7.2,3.4-10.6L40.9,70L39.9,71.1z"/>
	<polygon class="st10" points="177.8,80.3 167.9,77.2 174,82.8 	"/>
	<path class="st22" d="M118,95c-0.9-1.2-1.7-2.5-2.2-3.8l-0.5,1.3c0,0.7,0,1.4,0,2.2l2.3,0.3L118,95z"/>
</g>
</svg>
